<?xml version="1.0" encoding="UTF-8"?>
<svg width="1842px" height="660px" viewBox="0 0 1842 660" version="1.1" xmlns="http://www.w3.org/2000/svg" xmlns:xlink="http://www.w3.org/1999/xlink">
  <!-- Generator: Sketch 49.3 (51167) - http://www.bohemiancoding.com/sketch -->
  <title>404@2x</title>
  <desc>Created with Sketch.</desc>
  <defs></defs>
  <g id="404" stroke="none" stroke-width="1" fill="none" fill-rule="evenodd">
    <g>
      <g id="Group-5" transform="translate(1276.000000, 0.000000)">
        <rect id="Rectangle-3" fill="#C8DB5C" x="0" y="0" width="188.571429" height="471.428571" rx="94.2857143"></rect>
        <rect id="Rectangle-3-Copy-2" fill="#C8DB5C" x="377.142857" y="0" width="188.571429" height="660" rx="94.2857143"></rect>
        <rect id="Rectangle-3-Copy" fill="#81CF4E" x="0" y="282.857143" width="565.714286" height="188.571429" rx="94.2857143"></rect>
      </g>
      <g id="Group-8">
        <rect id="Rectangle-3-Copy-3" fill="#EA7450" x="0" y="0" width="188.571429" height="471.428571" rx="94.2857143"></rect>
        <rect id="Rectangle-3-Copy-8" fill="#EA7450" x="377.142857" y="0" width="188.571429" height="660" rx="94.2857143"></rect>
        <rect id="Rectangle-3-Copy-9" fill="#C2463E" x="0" y="282.857143" width="565.714286" height="188.571429" rx="94.2857143"></rect>
      </g>
      <g id="Group-6" transform="translate(638.000000, 0.000000)">
        <rect id="Rectangle-3-Copy-10" fill="#2496D4" x="0" y="471" width="565.714286" height="188.571429" rx="94.2857143"></rect>
        <rect id="Rectangle-3-Copy-4" fill="#69B6DF" x="0" y="0" width="188.571429" height="660" rx="94.2857143"></rect>
        <rect id="Rectangle-3-Copy-7" fill="#2496D4" x="0" y="0" width="565.714286" height="188.571429" rx="94.2857143"></rect>
        <path d="M565.571429,565.714286 C565.571429,513.641724 523.358276,471.428571 471.285714,471.428571 L377,471.428571 L377,94.2857143 C377,42.2131522 419.213152,-1.8856135e-14 471.285714,-2.84217094e-14 C523.358276,-9.56557448e-15 565.571429,42.2131522 565.571429,94.2857143 L565.571429,565.714286 Z" id="Combined-Shape" fill="#69B6DF"></path>
      </g>
    </g>
  </g>
</svg>
